<?xml version="1.0" encoding="UTF-8" standalone="no"?>
<svg
   viewBox="0 0 76.998344 80"
   id="rap_sheet_btn"
   pointer-events="auto"
   cursor="pointer"
   version="1.1"
   sodipodi:docname="rap_sheet_btn.svg"
   width="76.998344"
   height="80"
   inkscape:version="1.1 (c68e22c387, 2021-05-23)"
   xmlns:inkscape="http://www.inkscape.org/namespaces/inkscape"
   xmlns:sodipodi="http://sodipodi.sourceforge.net/DTD/sodipodi-0.dtd"
   xmlns="http://www.w3.org/2000/svg"
   xmlns:svg="http://www.w3.org/2000/svg">
  <defs
     id="defs856" />
  <sodipodi:namedview
     id="namedview854"
     pagecolor="#ffffff"
     bordercolor="#666666"
     borderopacity="1.0"
     inkscape:pageshadow="2"
     inkscape:pageopacity="0.0"
     inkscape:pagecheckerboard="0"
     showgrid="false"
     fit-margin-top="0"
     fit-margin-left="0"
     fit-margin-right="0"
     fit-margin-bottom="0"
     inkscape:zoom="4.2135417"
     inkscape:cx="-20.885043"
     inkscape:cy="32.63288"
     inkscape:window-width="1920"
     inkscape:window-height="1017"
     inkscape:window-x="-8"
     inkscape:window-y="-8"
     inkscape:window-maximized="1"
     inkscape:current-layer="rap_sheet_btn" />
  <rect
     style="fill:#803300;fill-opacity:0.36385;stroke-width:3.53943;stroke-opacity:0"
     id="rect1079"
     width="50"
     height="61.999996"
     x="6"
     y="12" />
  <path
     d="m 40.764,47.3 c 1.1261,1.0942 1.152,2.8941 0.0578,4.0202 -0.019,0.0195 -0.0383,0.0388 -0.0578,0.0578 l -4.882,1.608 -0.861,-0.861 1.608,-4.882 c 1.1659,-1.105 3,-1.0797 4.135,0.057 z M 62.824,17.831 34.624,46.094 31,57.007 41.97,53.388 70.176,25.188 Z"
     id="path841" />
  <path
     d="M 76.318,15.767 72.24,11.689 c -0.8836,-0.9041 -2.3328,-0.9207 -3.2369,-0.0371 -0.0125,0.0122 -0.0249,0.0246 -0.0371,0.0371 L 64.945,15.71 72.24,23 76.26,18.98 c 0.9019,-0.7935 0.9897,-2.1678 0.1963,-3.0696 -0.0439,-0.0499 -0.09,-0.0978 -0.1383,-0.1434 z"
     id="path843" />
  <path
     d="m 12,57 h 15.842 l 1.326,-4 H 12 Z"
     id="path845" />
  <path
     d="M 12,33 H 43.448 L 47.44,29 H 12 Z"
     id="path847" />
  <path
     d="M 56,43.6 V 74 H 6 V 12 h 11 v 6 h 28 v -6 h 11 v 8.422 l 4.7,-4.712 v 0 L 60.871,15.539 62,14.41 V 10 C 62,7.7909 60.2091,6 58,6 H 41 V 4 C 41,1.79086 39.2091,0 37,0 H 25 C 22.7909,0 21,1.79086 21,4 V 6 H 4 C 1.7909,6 0,7.7909 0,10 v 66 c 0,2.2091 1.7909,4 4,4 h 54 c 2.2091,0 4,-1.7909 4,-4 V 37.6 Z M 28.864,4.864 C 29.4291,4.2979 30.2002,3.986 31,4 c 1.6569,0 3,1.3431 3,3 0,1.6569 -1.3431,3 -3,3 -1.6569,0 -3,-1.3431 -3,-3 -0.014,-0.7998 0.2979,-1.5709 0.864,-2.136 z"
     id="path849" />
  <path
     d="M 12,45 H 31.448 L 35.44,41 H 12 Z"
     id="path851" />
</svg>
